@startuml

title __SEQUENCESEGMENT's Class Diagram__\n

  namespace org.firstinspires.ftc.teamcode {
    namespace trajectorysequence {
      namespace sequencesegment {
        abstract class org.firstinspires.ftc.teamcode.trajectorysequence.sequencesegment.SequenceSegment {
            - duration : double
            - endPose : Pose2d
            - markers : List<TrajectoryMarker>
            - startPose : Pose2d
            + getDuration()
            + getEndPose()
            + getMarkers()
            + getStartPose()
            # SequenceSegment()
        }
      }
    }
  }
  

  namespace org.firstinspires.ftc.teamcode {
    namespace trajectorysequence {
      namespace sequencesegment {
        class org.firstinspires.ftc.teamcode.trajectorysequence.sequencesegment.TrajectorySegment {
            - trajectory : Trajectory
            + TrajectorySegment()
            + getTrajectory()
        }
      }
    }
  }
  

  namespace org.firstinspires.ftc.teamcode {
    namespace trajectorysequence {
      namespace sequencesegment {
        class org.firstinspires.ftc.teamcode.trajectorysequence.sequencesegment.TurnSegment {
            - motionProfile : MotionProfile
            - totalRotation : double
            + TurnSegment()
            + getMotionProfile()
            + getTotalRotation()
        }
      }
    }
  }
  

  namespace org.firstinspires.ftc.teamcode {
    namespace trajectorysequence {
      namespace sequencesegment {
        class org.firstinspires.ftc.teamcode.trajectorysequence.sequencesegment.WaitSegment {
            + WaitSegment()
        }
      }
    }
  }
  

  org.firstinspires.ftc.teamcode.trajectorysequence.sequencesegment.TrajectorySegment -up-|> org.firstinspires.ftc.teamcode.trajectorysequence.sequencesegment.SequenceSegment
  org.firstinspires.ftc.teamcode.trajectorysequence.sequencesegment.TurnSegment -up-|> org.firstinspires.ftc.teamcode.trajectorysequence.sequencesegment.SequenceSegment
  org.firstinspires.ftc.teamcode.trajectorysequence.sequencesegment.WaitSegment -up-|> org.firstinspires.ftc.teamcode.trajectorysequence.sequencesegment.SequenceSegment


right footer


PlantUML diagram generated by SketchIt! (https://bitbucket.org/pmesmeur/sketch.it)
For more information about this tool, please contact philippe.mesmeur@gmail.com
endfooter

@enduml
